<svg width="1440" height="33" viewBox="0 0 1440 33" fill="none" xmlns="http://www.w3.org/2000/svg">
<path d="M1430.45 26.5957C1434.7 26.7227 1438.49 27.6468 1440 31.8711L1438.1 32.9729H0C0.190047 32.5007 0.432357 32.0437 0.665164 31.6071C3.78193 25.7529 9.34081 22.8741 18.0212 22.3105C24.1977 21.9094 30.4455 21.5032 36.6553 21.5184C45.7918 21.5184 54.9378 22.2597 64.0648 22.1023C96.3491 21.5539 128.605 20.5435 160.803 18.3044C194.515 15.9587 228.24 13.8178 261.98 11.8816C285.845 10.5564 309.758 9.7491 333.661 8.9875C342.37 8.71332 351.117 9.24137 359.844 9.38861C361.008 9.38861 362.177 9.34799 363.337 9.28198C383.32 8.14466 403.299 6.97179 423.287 5.88016C426.964 5.68214 430.727 5.47397 434.343 5.88016C439.018 6.42851 443.56 6.26096 448.235 5.97155C473.645 4.42804 499.063 2.74236 524.477 1.76751C552.262 0.708031 580.065 0.708031 607.884 1.76751C634.111 2.73728 660.389 2.61542 686.649 2.86421C691.69 2.91499 696.741 2.41233 701.791 2.24478C711.294 1.92998 720.834 1.39686 730.355 1.4324C760.939 1.55933 791.251 4.90023 821.659 7.12411C846.061 8.90626 870.425 11.3586 894.874 12.3741C927.695 13.7348 960.578 14.075 993.437 14.7147C1017.55 15.1869 1041.68 15.456 1065.79 15.7658C1080.76 15.9587 1095.73 16.1872 1110.7 16.1466C1123.92 16.111 1137.15 15.4865 1150.36 15.5576C1165.14 15.6439 1179.92 16.4309 1194.7 16.5375C1218.03 16.7051 1241.37 16.568 1264.71 16.5375C1268.79 16.5375 1272.88 16.4918 1276.95 16.2633C1282.63 15.9485 1288.18 16.177 1293.67 17.6088C1295.62 18.1166 1297.87 17.9439 1299.98 17.8932C1319.61 17.4159 1339.24 16.9589 1358.61 20.6603C1361.09 21.0765 1363.6 21.2785 1366.12 21.2645C1376.62 21.4016 1387.13 21.3204 1397.63 21.5844C1402.99 21.7215 1408.33 22.412 1414.21 22.8944L1411.05 26.6211H1418.18C1420.78 26.6211 1423.4 26.5602 1426 26.5501C1427.49 26.5501 1428.97 26.5551 1430.45 26.5957Z" fill="#F8F6F2"/>
</svg>
