<svg width="1440" height="33" viewBox="0 0 1440 33" fill="none" xmlns="http://www.w3.org/2000/svg">
<path d="M1430.45 7.34981C1434.7 7.22287 1438.49 6.2988 1440 2.07444L1438.1 0.972656H0C0.190047 1.44485 0.432357 1.90181 0.665164 2.33846C3.78193 8.19265 9.34081 11.0715 18.0212 11.6351C24.1977 12.0362 30.4455 12.4424 36.6553 12.4272C45.7918 12.4272 54.9378 11.6859 64.0648 11.8433C96.3491 12.3916 128.605 13.402 160.803 15.6411C194.515 17.9869 228.24 20.1278 261.98 22.064C285.845 23.3892 309.758 24.1965 333.661 24.9581C342.37 25.2322 351.117 24.7042 359.844 24.5569C361.008 24.5569 362.177 24.5976 363.337 24.6636C383.32 25.8009 403.299 26.9738 423.287 28.0654C426.964 28.2634 430.727 28.4716 434.343 28.0654C439.018 27.517 443.56 27.6846 448.235 27.974C473.645 29.5175 499.063 31.2032 524.477 32.1781C552.262 33.2375 580.065 33.2375 607.884 32.1781C634.111 31.2083 660.389 31.3301 686.649 31.0813C691.69 31.0306 696.741 31.5332 701.791 31.7008C711.294 32.0156 720.834 32.5487 730.355 32.5132C760.939 32.3862 791.251 29.0453 821.659 26.8214C846.061 25.0393 870.425 22.5869 894.874 21.5715C927.695 20.2107 960.578 19.8706 993.437 19.2308C1017.55 18.7586 1041.68 18.4895 1065.79 18.1798C1080.76 17.9869 1095.73 17.7584 1110.7 17.799C1123.92 17.8345 1137.15 18.4591 1150.36 18.388C1165.14 18.3017 1179.92 17.5147 1194.7 17.408C1218.03 17.2405 1241.37 17.3776 1264.71 17.408C1268.79 17.408 1272.88 17.4537 1276.95 17.6822C1282.63 17.997 1288.18 17.7685 1293.67 16.3367C1295.62 15.829 1297.87 16.0016 1299.98 16.0524C1319.61 16.5297 1339.24 16.9866 1358.61 13.2852C1361.09 12.8691 1363.6 12.667 1366.12 12.681C1376.62 12.5439 1387.13 12.6252 1397.63 12.3612C1402.99 12.2241 1408.33 11.5335 1414.21 11.0512L1411.05 7.32442H1418.18C1420.78 7.32442 1423.4 7.38535 1426 7.3955C1427.49 7.3955 1428.97 7.39043 1430.45 7.34981Z" fill="#F8F6F2"/>
</svg>
